<svg id="图层_1" data-name="图层 1" xmlns="http://www.w3.org/2000/svg" viewBox="0 0 500.85 502.13"><defs><style>.cls-1{fill:#469c50;}.cls-2{fill:#e5e5e5;}.cls-3{fill:#333;}</style></defs><path class="cls-1" d="M84,534.39" transform="translate(-55.66 -48.88)"/><path class="cls-2" d="M272.69,226a24.8,24.8,0,1,1,24.79,24.8A24.79,24.79,0,0,1,272.69,226Zm0,0" transform="translate(-55.66 -48.88)"/><path class="cls-3" d="M55.66,551V524.07H74.18V518.5A253.41,253.41,0,0,1,141,344.31,227.1,227.1,0,0,1,286.09,278.1h.6V266.23H285.5a41.88,41.88,0,1,1,28.71,0h-1.42V278.1H314a227,227,0,0,1,150.57,67.16c45.81,46.15,68,116.52,66.8,178v1.55h25.16V551Zm449-26.35v-2.13c1.07-54.82-18.63-118.66-59.33-159.12a201.71,201.71,0,0,0-286.2,0A228.12,228.12,0,0,0,99.8,519v5.69ZM167.91,470a13.53,13.53,0,0,1-25.75-4.26A152.81,152.81,0,0,1,235.9,345.26c11-5.1,23.73,11.86,10.56,23.73a127.22,127.22,0,0,0-78.55,101Zm132-228.41a15.77,15.77,0,1,0-11.2-4.66,15.89,15.89,0,0,0,11.2,4.66Zm0,0M221.48,53.85c-9,13.92-12,27.81-8.63,44.07,3.37,16.46,15.91,30.84,6.83,47.64-6.61,12.24,12,23.13,18.63,10.89,7.16-13.25,7.95-26,3.65-40.34-5.77-19.3-14.29-32.25-1.85-51.36C247.72,53,229,42.25,221.48,53.85Zm71.92,0c-9,13.92-12,27.81-8.63,44.07,3.38,16.46,15.91,30.84,6.84,47.64-6.62,12.24,12,23.13,18.62,10.89,7.16-13.25,7.95-26,3.66-40.34-5.78-19.3-14.29-32.25-1.86-51.36C319.65,53,301,42.25,293.4,53.85Zm71.93,0c-9.06,13.92-12,27.81-8.63,44.07,3.37,16.46,15.91,30.84,6.83,47.64-6.62,12.24,12,23.13,18.63,10.89,7.15-13.25,7.94-26,3.65-40.34C380,96.81,371.52,83.86,384,64.75c7.61-11.71-11.07-22.5-18.63-10.9Z" transform="translate(-55.66 -48.88)"/></svg>